<?xml version="1.0" standalone="no"?><!DOCTYPE svg PUBLIC "-//W3C//DTD SVG 1.1//EN" "http://www.w3.org/Graphics/SVG/1.1/DTD/svg11.dtd"><svg t="1705568991138" class="icon" viewBox="0 0 1024 1024" version="1.1" xmlns="http://www.w3.org/2000/svg" p-id="30551" xmlns:xlink="http://www.w3.org/1999/xlink" width="200" height="200"><path d="M510.401 0C228.912 0 0 228.913 0 510.403c0 281.448 228.912 510.443 510.401 510.443 281.408 0 510.322-228.995 510.322-510.443C1020.724 228.913 791.81 0 510.401 0m0 57.552c250.107 0 452.892 202.786 452.892 452.851 0 30.981-3.154 61.273-9.14 90.514-29.2 92.132-115.347 158.781-217.184 158.781-125.78 0-227.943-101.959-227.943-227.859 0-125.821-101.919-227.862-227.86-227.862-109.605 0-201.008 77.368-222.848 180.378C71.747 246.425 269.032 57.552 510.401 57.552" fill="#040000" p-id="30552"></path></svg>